<svg width="286" height="278" viewBox="0 0 286 278" fill="none" xmlns="http://www.w3.org/2000/svg">
<path fill-rule="evenodd" clip-rule="evenodd" d="M159.926 245.494C172.255 245.587 184.581 245.044 196.851 243.866L196.882 244.237C194.357 244.47 191.831 244.687 189.306 244.941C181.51 245.735 173.682 245.91 165.856 246.106C160.081 246.228 154.312 245.672 148.674 244.45C141.939 243.027 135.068 242.562 128.232 241.839C115.103 240.45 102.081 238.442 89.338 234.98C88.3347 234.708 87.1743 234.548 86.3647 234.091C84.3566 232.958 82.0396 232.481 80.1642 231.044C79.1663 230.28 77.7317 230.144 76.6975 229.21C73.8913 226.678 70.4113 225.166 67.1276 223.339C62.0635 220.522 56.9067 217.645 53.2299 213.163C46.6279 205.116 40.7855 196.529 37.5026 186.632C34.1052 176.39 33.6853 166.044 36.8635 155.562C38.2313 151.048 39.2754 146.48 41.8803 142.435C43.2691 140.37 44.7975 138.397 46.4559 136.529C48.3965 134.255 49.9893 131.729 52.3155 129.729C55.5343 126.959 58.7581 124.232 62.2439 121.766C65.905 119.179 67.2035 115.238 68.0359 111.06C69.0648 105.898 69.5067 100.635 71.026 95.5549C75.2748 81.351 83.6855 70.1921 96.2081 61.7483C102.529 57.4856 109.227 53.882 115.777 50.0223C121.927 46.3982 128.377 43.2398 134.49 39.5791C148.301 31.3102 163.147 31.2095 178.374 33.5985C185.133 34.6593 191.539 36.9803 197.878 39.4909C204.801 42.2323 211.837 44.6884 218.173 48.6715C229.567 55.8362 238.521 65.0254 243.838 77.3415C246.398 83.2722 248.951 89.2073 250.2 95.5505C251.496 101.755 251.647 108.134 250.645 114.39C249.356 122.04 247.008 129.46 245.66 137.093C245.411 138.553 245.295 140.032 245.313 141.512C245.333 145.422 244.796 149.337 245.205 153.237C245.699 157.956 246.467 162.647 246.95 167.366C247.641 174.578 247.551 181.841 246.681 189.035C245.9 195.812 244.539 202.513 242.611 209.07C241.495 212.993 239.891 216.768 237.834 220.312C236.855 221.971 236.424 224.222 234.185 225.024C230.404 231.146 223.896 233.887 217.985 237.359C215.394 238.881 212.522 239.834 209.803 241.082C207.588 242.097 205.281 242.038 203.041 242.484C196.93 243.707 190.688 244.034 184.475 244.505C176.315 245.127 168.132 245.321 159.926 245.494Z" fill="#FACC15"/>
<path fill-rule="evenodd" clip-rule="evenodd" d="M142.846 0.250119C142.667 0.298602 142.383 0.265625 142.412 0.0869236C142.519 0.0334678 142.639 -0.0215356 142.756 0.00852374C142.872 0.0385831 142.948 0.202351 142.854 0.276002L142.846 0.250119Z" fill="#00160A"/>
<path fill-rule="evenodd" clip-rule="evenodd" d="M143.759 101.912L144.203 102.092C146.613 103.058 148.437 103.6 149.673 103.717C150.985 103.842 152.9 103.611 155.419 103.024L155.37 103.632C154.958 108.952 154.975 112.967 155.419 115.679C155.88 118.493 156.972 120.94 158.696 123.02C156.759 125.125 153.843 127.248 157.441 137.082C159.883 143.757 155.735 167.386 155.37 187.242C155.198 196.639 157.217 205.274 158.696 210.714C162.229 223.709 167.952 234.804 174.269 239.863C177.424 242.389 182.814 244.875 181.177 245.477C169.092 249.925 122.599 244.689 122.408 242.395C122.233 240.287 134.746 240.56 136.517 230.999C139.943 212.507 133.978 179.244 134.147 175.158C134.645 163.089 138.356 148.449 143 137.496C143.173 137.088 144.436 137.015 146.135 137.082L146.253 136.619C147.34 132.263 147.526 129.281 146.813 127.671C145.988 125.807 143.173 124.022 138.371 122.315C140.09 121.307 141.366 119.226 142.198 116.073L142.285 115.736C143.067 112.587 143.559 107.979 143.759 101.912Z" fill="white"/>
<path fill-rule="evenodd" clip-rule="evenodd" d="M145.462 168.235C145.973 162.16 145.944 159.823 146.813 153.786C147.065 152.036 146.689 137.645 143.562 139.946C142.391 140.807 142.857 142.729 142.298 144.049C137.654 155.001 134.646 163.089 134.147 175.158C133.89 181.357 133.462 187.585 133.977 193.768C134.889 204.727 143.889 186.93 145.462 168.235Z" fill="white"/>
<path fill-rule="evenodd" clip-rule="evenodd" d="M153.588 193.303C152.346 178.836 155.373 164.392 156.948 149.955C157.455 145.315 157.803 140.556 156.605 136.038C155.965 133.623 154.885 131.275 154.833 128.782C154.782 126.288 156.183 123.497 158.696 123.02C153.783 117.265 152.616 108.718 155.813 101.912C156.029 105.844 156.245 109.775 156.461 113.706C156.577 115.799 156.746 118.038 158.076 119.685C159.406 121.333 162.35 121.876 163.627 120.189C164.98 118.402 167.922 118.559 169.784 119.839C171.647 121.12 172.752 123.168 174 125.026C176.178 128.266 178.962 131.103 182.094 133.489C193.78 142.389 200.543 156.666 201.484 171.089C202.025 179.383 192.891 198.389 192.847 211.185C192.815 220.64 201.232 225.408 204.115 226.678C206.265 227.625 208.603 228.156 210.671 229.264C212.739 230.372 214.589 232.275 214.686 234.573C214.785 236.896 213.103 238.918 211.33 240.475C204.332 246.618 194.251 249.252 185.039 247.344C181.612 246.634 178.287 245.317 175.499 243.252C171.749 240.475 169.143 236.502 166.831 232.504C159.848 220.425 154.773 207.119 153.588 193.303Z" fill="white"/>
<path fill-rule="evenodd" clip-rule="evenodd" d="M132.732 62.8102C134.106 56.087 137.11 49.7942 140.089 43.5756C141.555 40.515 144.694 38.2606 148.149 37.7869C147.072 38.5293 145.912 39.3889 145.645 40.6414C145.378 41.8942 146.709 43.4043 147.889 42.825C152.93 40.3511 159.625 41.5788 163.378 45.6654C164.646 47.0457 165.579 48.6767 166.501 50.2928C169.597 55.7197 172.794 61.5981 172.093 67.7582C171.884 69.5919 171.49 71.8348 173.014 72.945C173.751 73.4817 173.525 74.5874 173.21 75.4255C169.99 83.9834 165.011 91.919 158.647 98.6348C156.552 100.845 153.956 103.069 150.855 103.023C148.882 102.994 147.07 102.035 145.349 101.102C141.899 99.2301 138.409 97.3304 135.541 94.6961C132.673 92.0617 130.445 88.5719 130.186 84.7559C129.99 81.8769 130.895 78.8638 129.841 76.1646C129.315 74.8198 128.334 73.663 127.907 72.2859C127.481 70.9085 127.889 69.0826 129.303 68.6367C131.617 67.9076 132.261 65.1176 132.732 62.8102Z" fill="white"/>
<path d="M162.067 87.1067C163.541 87.1067 164.736 85.945 164.736 84.512C164.736 83.079 163.541 81.9174 162.067 81.9174C160.592 81.9174 159.397 83.079 159.397 84.512C159.397 85.945 160.592 87.1067 162.067 87.1067Z" fill="#FFB61D"/>
<path fill-rule="evenodd" clip-rule="evenodd" d="M111.342 244.766C112.174 244.028 112.96 243.33 112.601 242.395C110.36 242.581 108.42 244.507 108.304 246.661C108.188 248.815 109.911 250.922 112.12 251.329C128.978 254.431 146.326 255.074 163.384 253.227C167.493 252.782 172.122 251.872 174.269 248.483C173.617 247.637 172.281 248.214 171.329 248.798L170.99 249.01C167.631 251.066 163.534 251.637 159.535 251.953L158.787 252.01C143.799 253.099 128.672 252.418 113.857 249.988C111.886 249.664 109.347 248.523 109.84 246.666C110.036 245.924 110.703 245.332 111.342 244.766ZM156.481 114.047L155.813 101.912C152.616 108.718 153.783 117.266 158.696 123.02C156.183 123.498 154.782 126.288 154.833 128.781C154.869 130.526 155.409 132.199 155.949 133.874C156.181 134.593 156.413 135.312 156.605 136.038C157.803 140.556 157.455 145.315 156.948 149.955L156.88 150.574C156.494 154.028 156.029 157.483 155.563 160.938C154.113 171.718 152.661 182.504 153.588 193.303C154.773 207.119 159.848 220.425 166.831 232.504C169.143 236.502 171.749 240.475 175.499 243.252C178.287 245.317 181.612 246.634 185.039 247.344C194.251 249.252 204.333 246.618 211.33 240.475C213.103 238.918 214.785 236.896 214.687 234.573C214.589 232.275 212.739 230.372 210.671 229.264C209.468 228.619 208.173 228.17 206.876 227.72C205.945 227.397 205.014 227.074 204.115 226.678C197.33 223.689 192.933 216.222 193.708 209.006C189.883 212.896 191.972 219.694 196.102 223.276C198.765 225.586 202.008 227.058 205.26 228.533C207.052 229.347 208.846 230.161 210.548 231.118C211.533 231.671 212.578 232.399 212.769 233.491C212.932 234.421 212.415 235.328 211.855 236.098C207.876 241.565 200.992 244.365 194.208 245.477C189.76 246.206 185.004 246.288 180.939 244.383C177.418 242.733 174.763 239.764 172.448 236.684L172.148 236.282C160.559 220.634 154.474 201.19 155.13 181.904C155.343 175.644 156.24 169.413 157.137 163.189C158.418 154.294 159.698 145.413 158.972 136.49L171.247 127.721C172.133 127.109 173.528 126.615 174.065 127.516C175.824 130.468 178.51 132.707 181.193 134.945C182.123 135.72 183.053 136.496 183.945 137.301C193.883 146.28 199.194 159.534 199.656 172.733C200.118 185.932 196.016 199.037 189.422 210.575C187.722 213.55 183.394 213.515 179.928 213.085L179.837 213.074C179.562 213.038 179.281 212.986 179.063 212.823C178.589 212.469 178.618 211.793 178.726 211.206L178.754 211.061C180.882 200.748 182.921 190.286 182.299 179.785C181.677 169.283 178.117 158.583 170.459 151.169C172.927 155.978 175.082 160.939 176.907 166.013C178.332 169.973 179.56 174.025 180.078 178.191C180.954 185.25 179.768 192.289 178.578 199.346C177.859 203.615 177.139 207.89 176.872 212.181L176.867 212.274C176.832 212.898 176.848 213.574 177.272 214.035C177.642 214.438 178.227 214.564 178.772 214.668L178.909 214.695C182.966 215.458 188.056 215.757 190.189 212.334C197.886 199.98 202.425 185.512 201.484 171.089C200.543 156.666 193.78 142.389 182.094 133.489L181.802 133.264C178.789 130.926 176.11 128.165 174.001 125.026C173.782 124.7 173.568 124.369 173.353 124.038C172.342 122.474 171.321 120.896 169.785 119.839C167.922 118.558 164.98 118.402 163.627 120.189L163.565 120.268C162.257 121.859 159.385 121.307 158.076 119.686C156.818 118.127 156.598 116.039 156.481 114.047ZM138.63 122.574C143.437 116.781 145.138 108.694 143.052 101.542L141.18 113.252C140.83 115.393 140.379 117.607 138.945 119.255C137.426 120.999 134.405 121.727 132.715 120.138L132.632 120.063C130.774 118.437 127.819 119.829 125.764 121.348L125.582 121.484C119.076 126.44 112.686 131.664 107.647 138.024C102.035 145.109 98.2742 153.379 94.8727 161.687L94.2454 163.229C92.1035 168.533 90.1061 174.002 89.9985 179.687C89.8868 185.599 92.1809 191.874 97.2362 195.189C99.9098 196.942 99.7717 200.73 99.3381 203.829L97.6328 216.015C96.983 220.708 96.44 225.611 98.2399 229.996C100.565 235.661 106.483 239.352 112.608 240.755C118.489 242.101 124.621 241.669 130.649 241.159L140.332 240.332C141.027 240.271 141.75 240.178 142.299 239.766C142.842 239.358 143.119 238.707 143.339 238.076C145.768 231.093 143.873 223.613 141.707 216.425L140.487 212.417C138.257 204.996 136.47 197.398 136.179 189.677C135.765 178.706 138.374 167.875 141.1 157.205L147.826 130.958C148.393 128.746 147.049 126.407 145.156 125.054C143.39 123.79 141.225 123.203 139.088 122.684L138.63 122.574ZM122.542 126.287C123.744 125.324 125.514 124.386 126.732 125.329C131.691 129.168 137.56 131.897 143.753 133.245C144.631 133.436 144.721 134.571 144.574 135.458L144.548 135.603C143.369 141.509 141.737 147.363 140.106 153.211C136.792 165.097 133.485 176.956 134.012 189.172C134.402 198.209 136.892 207.004 139.534 215.698L140.59 219.157C142.152 224.3 143.596 229.829 141.742 234.858C141.299 236.062 140.618 237.26 139.482 237.911C138.593 238.42 137.53 238.537 136.504 238.642L130.592 239.249C124.804 239.838 118.902 240.35 113.249 239.046C107.366 237.689 101.7 233.963 99.8056 228.4C98.4306 224.364 99.1784 220.016 99.9052 215.79C99.9525 215.516 99.9994 215.242 100.046 214.969L100.128 214.48C100.966 209.454 101.439 204.371 101.541 199.281C108.214 206.587 113.944 214.702 118.554 223.376C118.886 224.001 119.861 223.712 120.478 223.342L120.952 223.057C123.483 221.531 126.025 219.915 127.795 217.602C129.676 215.145 130.509 211.681 129.005 208.99L119.837 192.593C116.537 186.683 113.185 180.3 113.952 173.634C114.442 169.375 116.577 165.495 118.771 161.756L124.407 152.202L123.855 152.781C118.342 158.594 112.997 165.165 112.159 172.984C111.532 178.83 113.535 184.627 116.051 189.99L116.296 190.507C119.007 196.187 122.25 201.608 125.547 206.992L126.785 209.01C128.132 211.203 127.536 214.121 126.029 216.215C124.618 218.173 122.55 219.568 120.484 220.885L120.057 221.156L116.047 214.506C112.535 208.689 108.902 202.839 103.836 198.233C102.933 197.411 101.983 196.627 101.033 195.844C98.6525 193.88 96.273 191.917 94.6336 189.362C90.3509 182.689 92.2743 174.046 95.0577 166.625L95.2293 166.172C101.014 151.036 109.697 136.57 122.542 126.287ZM187.107 218.129L176.08 215.81C175.451 215.683 174.727 215.602 174.269 216.012C174.372 216.661 175.096 217.011 175.772 217.241L175.927 217.292C179.506 218.438 183.199 219.6 186.977 219.388C187.425 219.363 188.002 219.193 187.997 218.774C187.993 218.395 187.505 218.213 187.107 218.129ZM156.347 138.994L156.167 137.496C153.969 137.857 151.726 137.973 149.499 137.841L149.432 137.837C148.778 137.798 148.088 137.757 147.513 138.051C146.918 138.355 146.568 139.178 147.017 139.657C147.313 139.973 147.808 140.013 148.252 140.031L148.458 140.04C151.151 140.148 153.974 140.195 156.347 138.994ZM127.68 123.32C127.303 122.227 128.666 121.194 129.849 121.311C130.854 121.409 131.705 122.001 132.536 122.579C132.566 122.6 132.596 122.621 132.626 122.642L132.978 122.883C135.751 124.749 139.064 125.645 142.361 126.411L143.49 126.67C145.216 127.062 145.534 129.24 145.45 130.988L145.439 131.181C145.429 131.341 145.414 131.511 145.312 131.637C145.106 131.891 144.697 131.816 144.379 131.716L144.05 131.613C138.565 129.879 133.054 127.868 128.57 124.358C128.204 124.071 127.829 123.753 127.68 123.32ZM147.94 37.9318L148.15 37.7869C144.694 38.2606 141.556 40.515 140.089 43.5756C137.11 49.7942 134.106 56.087 132.732 62.8102C132.261 65.1176 131.617 67.9076 129.303 68.6367L129.216 68.6664C127.873 69.1586 127.49 70.9371 127.907 72.2859C128.141 73.0391 128.54 73.7267 128.94 74.415C129.271 74.9851 129.603 75.5556 129.841 76.1646C130.515 77.8911 130.388 79.7463 130.26 81.6126C130.188 82.6638 130.115 83.7188 130.186 84.7559C130.445 88.5719 132.673 92.0617 135.541 94.6961C138.132 97.0754 141.229 98.8557 144.347 100.557L145.349 101.102C147.07 102.035 148.882 102.994 150.855 103.023C153.956 103.069 156.552 100.845 158.647 98.6348L158.954 98.3086C165.171 91.6629 170.042 83.8452 173.21 75.4255C173.525 74.5874 173.751 73.4817 173.014 72.945C171.729 72.0087 171.807 70.2676 171.989 68.6456L172.093 67.7582C172.775 61.7605 169.762 56.0292 166.745 50.722L166.347 50.0233C165.474 48.4962 164.576 46.969 163.378 45.6654C159.625 41.5788 152.93 40.3511 147.889 42.825C146.709 43.4043 145.378 41.8942 145.645 40.6414C145.895 39.4697 146.926 38.642 147.94 37.9318ZM132.511 75.4147C132.936 72.942 133.363 70.4578 133.269 67.9847C134.794 72.1488 139.932 74.7149 144.328 73.5084C144.795 73.3801 145.251 73.2159 145.707 73.0521C146.443 72.7871 147.179 72.5228 147.954 72.4116C149.208 72.2318 150.678 72.5839 151.278 73.6637L151.339 73.7704C153.087 76.7287 157.623 76.9548 160.87 75.5648C162.548 74.8469 164.057 73.829 165.566 72.8112C167.014 71.8345 168.462 70.8577 170.059 70.145C170.324 71.0542 170.078 71.9949 169.852 72.8556C169.655 73.6077 169.474 74.2983 169.665 74.8535C169.785 74.693 169.899 74.5362 170.007 74.3869C170.703 73.4276 171.188 72.7593 171.828 73.2293C172.568 73.773 172.515 75.2691 171.828 76.0382C171.585 76.3106 171.298 76.5527 171.012 76.7932C170.491 77.2314 169.975 77.6665 169.731 78.2785C166.6 86.1463 161.711 93.3561 155.496 99.2708C154.735 99.9959 153.923 100.72 152.917 101.07C150.776 101.815 148.468 100.69 146.492 99.5992L145.543 99.0718C139.833 95.8733 133.895 92.0069 132.233 85.9042C131.299 82.4763 131.903 78.9572 132.511 75.4147ZM150.468 75.8436L150.687 75.6979C150.463 74.5759 148.612 74.6608 147.716 75.4318C146.178 76.7551 145.978 79.2563 147.353 80.7297C148.729 82.2031 151.474 82.3073 152.914 80.8891C152.945 80.2675 152.106 79.9357 151.447 79.9973C151.24 80.0166 151.031 80.0562 150.823 80.0955C150.37 80.1811 149.919 80.2667 149.485 80.1429C148.506 79.8646 148.178 78.6199 148.576 77.7347C148.939 76.9263 149.702 76.357 150.468 75.8436ZM130.843 69.6027L131.18 69.6019C131.67 69.6079 132.343 69.672 132.233 70.145C131.878 71.6688 131.717 73.4454 131.631 74.663L131.559 75.7787C131.349 75.8573 130.75 75.0578 130.405 74.597C130.334 74.5029 130.275 74.4232 130.231 74.3676L130.186 74.3131C130.095 74.1204 129.971 73.892 129.836 73.6418C128.984 72.062 127.656 69.6027 130.843 69.6027ZM136.344 56.2835C136.614 55.4087 136.921 54.4795 137.655 53.9053C138.39 53.3308 139.692 53.3538 140.104 54.1752C141.069 56.1004 143.281 57.1205 145.412 57.6995C151.707 59.4093 158.733 58.4178 164.259 55.0399C165.335 54.3824 166.837 54.8223 167.708 55.7194C168.506 56.5415 168.891 57.6461 169.18 58.7455L169.256 59.045C169.902 61.63 170.304 64.2725 170.456 66.9279C170.48 67.3498 170.489 67.8038 170.248 68.1563C170.103 68.3691 169.881 68.5203 169.665 68.6667L169.328 68.8932C168.371 69.5341 167.38 70.1501 166.261 70.447C165.011 70.7792 163.547 70.6402 162.606 69.7784L162.495 69.6794C160.109 67.5937 156.251 67.2678 153.536 68.9425C153.186 69.1579 152.849 69.4044 152.511 69.6509C151.646 70.2821 150.782 70.913 149.726 71.0186C148.15 71.1765 146.875 70.1457 145.606 69.1197C145.158 68.7572 144.71 68.3954 144.25 68.0866C141.707 66.3801 138.117 66.2774 135.474 67.8357C133.579 66.5113 134.047 63.7113 134.717 61.5455L136.344 56.2835ZM164.426 65.5194L156.208 64.8648C155.738 64.83 155.243 64.8181 154.85 65.0453C154.428 65.2892 154.268 65.9257 154.679 66.1825C154.839 66.2822 155.041 66.3019 155.234 66.3186L163.569 67.0369C164.717 67.1277 166.095 67.0814 166.643 66.1766C166.076 65.6725 165.217 65.5824 164.426 65.5194ZM145.639 65.7789C145.764 65.3111 145.485 64.8322 145.155 64.4645C143.234 62.3231 139.13 62.5582 137.494 64.903C137.176 65.3593 137.175 66.23 137.751 66.1944C139.326 64.2539 142.873 64.2321 144.474 66.1525C144.79 66.531 145.514 66.2467 145.639 65.7789ZM168.168 64.3685C168.302 64.2358 168.259 63.6957 167.884 63.4885C167.607 63.3351 166.823 63.2609 166.692 63.5237C166.397 64.1005 167.758 64.7755 168.168 64.3685ZM168.126 62.4166C168.267 62.0811 167.601 61.1403 167.218 61.1385C166.881 61.1374 166.462 62.0956 166.686 62.411C166.916 62.7342 168.001 62.7172 168.126 62.4166ZM165.796 61.8739C166.256 61.8075 166.623 60.8249 166.261 60.5658C165.902 60.3086 164.858 60.5784 164.743 60.9002C164.625 61.2323 165.303 61.9451 165.796 61.8739ZM137.847 60.7167C138.325 61.362 139.528 61.2445 139.864 60.5202C140.2 59.7956 139.493 58.84 138.681 58.9193C137.868 58.9986 137.371 60.0713 137.847 60.7167ZM166.275 59.0609C166.802 59.2792 167.59 59.2255 167.635 58.6936C167.593 57.9819 166.787 57.87 166.261 57.9571C165.841 58.0267 165.848 58.8845 166.275 59.0609ZM164.985 59.0435C165.366 58.8378 165.266 57.7165 164.841 57.5753C164.381 57.4218 163.142 57.725 163.214 58.4541C163.286 59.1836 164.553 59.2774 164.985 59.0435ZM139.406 58.6454C139.865 59.1339 140.85 58.923 141.056 58.2921C141.262 57.6609 140.582 56.937 139.917 57.0793C139.252 57.2217 138.947 58.1565 139.406 58.6454ZM138.04 57.1902C138.407 56.8877 138.46 56.3447 138.246 56.06C137.814 55.4855 137.452 55.4881 137.157 55.7709C136.789 56.1234 136.772 56.7172 136.92 57.331C136.975 57.5608 137.666 57.4982 138.04 57.1902ZM158.798 85.5224C157.653 86.9821 155.942 88.0281 154.074 88.4107C154.024 88.4207 153.975 88.4303 153.925 88.4403C153.539 88.5163 153.143 88.5941 152.845 88.8347C152.509 89.1064 152.396 89.6772 152.751 89.9271C152.948 90.0664 153.217 90.0605 153.462 90.039C156.646 89.761 159.603 87.7531 160.923 84.972C160.831 84.532 160.199 84.3808 159.774 84.572C159.401 84.74 159.148 85.0687 158.901 85.3894C158.867 85.4338 158.833 85.4783 158.798 85.5224Z" fill="#00160A"/>
<path fill-rule="evenodd" clip-rule="evenodd" d="M167.808 169.141C168.639 168.63 169.621 169.634 169.855 170.571C170.089 171.507 170.121 172.634 170.925 173.184C171.748 173.746 172.854 173.349 173.838 173.164C174.821 172.978 176.179 173.339 176.176 174.326C176.175 174.57 176.082 174.803 175.986 175.028C175.135 177.019 173.927 178.861 172.436 180.444C172.751 181.721 173.233 182.958 173.867 184.115C174.291 184.888 173.341 185.817 172.449 185.777C171.558 185.736 170.817 185.128 170.094 184.612C169.372 184.096 168.469 183.628 167.623 183.906C166.892 184.147 166.458 184.859 165.98 185.454C165.502 186.049 164.754 186.608 164.024 186.366C163.142 186.073 163.019 184.897 163.153 183.989C163.329 182.799 163.671 181.633 164.164 180.533C164.514 179.756 163.941 178.855 163.228 178.376C162.515 177.898 161.653 177.656 160.978 177.127C160.303 176.597 159.872 175.581 160.388 174.9C160.639 174.569 161.05 174.402 161.448 174.273C162.776 173.844 164.19 173.68 165.582 173.793C166.115 172.544 166.647 171.294 167.179 170.044C167.325 169.702 167.488 169.338 167.808 169.141Z" fill="#FFB61D"/>
<path fill-rule="evenodd" clip-rule="evenodd" d="M128.57 124.358C128.204 124.071 127.829 123.752 127.68 123.32C127.303 122.227 128.666 121.194 129.849 121.311C130.855 121.409 131.705 122.001 132.536 122.579C132.684 122.682 132.831 122.784 132.978 122.883C136.068 124.962 139.828 125.836 143.49 126.67C145.28 127.077 145.555 129.403 145.439 131.18C145.429 131.34 145.414 131.511 145.312 131.637C145.106 131.891 144.697 131.816 144.379 131.716C138.786 129.958 133.144 127.938 128.57 124.358ZM127.795 217.602C129.676 215.145 130.509 211.681 129.005 208.99L119.959 192.811C116.62 186.84 113.176 180.383 113.952 173.634C114.474 169.097 116.862 164.99 119.201 161.026L124.407 152.202C118.703 158.157 113.026 164.905 112.159 172.984C111.511 179.018 113.667 185.001 116.296 190.507C119.346 196.897 123.069 202.96 126.785 209.01C128.132 211.203 127.536 214.121 126.029 216.215C124.521 218.308 122.261 219.757 120.057 221.156L116.468 215.203C112.823 209.159 109.104 203.023 103.836 198.232C102.933 197.411 101.983 196.627 101.033 195.844C98.6525 193.88 96.273 191.917 94.634 189.362C90.2636 182.553 92.3556 173.692 95.2293 166.172C101.014 151.036 109.697 136.57 122.542 126.287C123.744 125.324 125.514 124.386 126.733 125.329C131.691 129.168 137.56 131.897 143.753 133.245C144.68 133.447 144.728 134.7 144.548 135.603C143.369 141.509 141.737 147.363 140.106 153.211C136.792 165.097 133.485 176.956 134.012 189.172C134.439 199.048 137.372 208.635 140.273 218.116C140.333 218.312 140.393 218.508 140.452 218.704C142.065 223.975 143.651 229.681 141.743 234.858C141.299 236.062 140.618 237.26 139.482 237.911C138.593 238.42 137.53 238.537 136.504 238.642L131.3 239.176C125.286 239.794 119.132 240.404 113.249 239.046C107.366 237.689 101.701 233.963 99.8057 228.4C98.4306 224.364 99.1784 220.016 99.9052 215.79C99.9807 215.352 100.056 214.915 100.128 214.48C100.966 209.454 101.439 204.371 101.541 199.281C108.214 206.587 113.944 214.702 118.554 223.376C118.886 224.001 119.861 223.712 120.478 223.342C123.163 221.73 125.914 220.06 127.795 217.602Z" fill="white"/>
<path fill-rule="evenodd" clip-rule="evenodd" d="M171.375 125.447C171.419 125.03 171.171 124.643 170.934 124.293C170.237 123.268 169.506 122.211 168.432 121.565C167.358 120.919 165.836 120.807 164.909 121.642C163.125 123.247 161.05 124.545 158.81 125.457C157.336 126.056 156.594 127.751 156.655 129.306C156.716 130.861 157.413 132.317 158.097 133.722C158.216 133.967 158.375 134.242 158.648 134.288C158.878 134.327 159.094 134.186 159.282 134.052C163.313 131.184 167.344 128.315 171.375 125.447Z" fill="white"/>
<path fill-rule="evenodd" clip-rule="evenodd" d="M75.9715 69.4011C76.1385 69.1983 76.2121 68.9377 76.1747 68.6809C76.1389 68.421 75.9963 68.1868 75.7793 68.0311C75.7793 68.0311 73.0417 66.1848 72.8796 66.2534C72.7179 66.3223 75.197 68.8013 75.197 68.8013C70.5443 74.4095 62.1672 75.4622 56.1978 71.1888C50.2281 66.9154 48.7859 58.8334 52.9268 52.8589L71.0576 66.1766C71.2773 66.3342 71.5869 66.2886 71.749 66.0751C71.911 65.8616 53.5171 52.088 53.5171 52.088C53.3024 51.9304 53.0309 51.8644 52.7651 51.9052C52.4993 51.9464 52.2621 52.0906 52.108 52.3052C47.5602 58.7018 49.0856 67.4514 55.5477 72.0384C61.9674 76.6765 71.0233 75.5071 75.9715 69.4011ZM57.0455 70.9308C62.1375 74.5989 69.2287 74.1208 73.7472 69.8043C73.9432 69.6183 73.9462 69.3136 73.7544 69.1234C73.5622 68.9336 73.2476 68.9303 73.0516 69.1164C68.8726 73.0847 62.3392 73.5277 57.6309 70.162C52.9222 66.7964 51.4296 60.6166 54.1077 55.5756C54.1966 55.4221 54.1916 55.2338 54.0952 55.0844C53.9987 54.9354 53.8259 54.8491 53.6444 54.8594C53.4633 54.8702 53.3024 54.9758 53.225 55.1352C50.3028 60.5929 51.9254 67.3001 57.0455 70.9308ZM57.8856 67.6152C57.854 67.1978 57.9615 66.7823 58.1872 66.4472C58.4599 66.0717 58.797 65.76 59.1783 65.5302C59.8998 65.0902 60.3292 65.2266 60.5618 65.4182C61.3207 66.0387 60.7304 67.7142 60.378 68.2461C60.0985 68.6775 59.6516 68.9366 59.1734 68.944C58.898 68.9459 58.6292 68.8491 58.4069 68.6679C58.1045 68.4173 57.9146 68.0337 57.8856 67.6152ZM60.0131 66.2448C59.5833 66.3824 59.2012 66.6622 58.9175 67.0466C58.8244 67.183 58.7798 67.3528 58.7913 67.5233C58.7989 67.6537 58.8557 67.7738 58.948 67.8546C59.194 68.0077 59.5047 67.9158 59.65 67.6467C59.8956 67.2312 60.0222 66.7423 60.0131 66.2448ZM63.0347 70.4182C63.4542 70.4615 63.8737 70.3348 64.1822 70.0712C64.493 69.8118 64.689 69.457 64.7328 69.0741C64.8064 68.4703 64.5364 66.8338 63.4893 66.7256C63.1602 66.6911 62.6813 66.8045 62.205 67.5229C61.9506 67.9017 61.7813 68.3232 61.7058 68.7624C61.6555 69.1449 61.7603 69.5308 62.001 69.847C62.2389 70.1654 62.616 70.3741 63.0347 70.4182ZM63.3734 67.6667C63.6323 68.0585 63.7547 68.5129 63.7242 68.97C63.7086 69.1268 63.6296 69.2732 63.5034 69.3803C63.4096 69.4652 63.2796 69.5074 63.148 69.4952C63.0184 69.4774 62.9028 69.41 62.8304 69.3095C62.7335 69.179 62.6927 69.0208 62.7152 68.8647C62.7972 68.4136 63.0267 67.9959 63.3734 67.6667ZM66.919 66.0517C67.8464 65.6529 68.9164 66.9899 69.1696 67.5663V67.5648C69.5319 68.3113 69.2185 69.2079 68.4684 69.5719C68.2968 69.6468 68.1111 69.6854 67.9238 69.6854C67.7137 69.6842 67.507 69.6379 67.3167 69.5493C66.9541 69.3803 66.6662 69.0849 66.5083 68.719C66.2559 68.1434 65.992 66.4506 66.919 66.0517ZM67.721 68.679C67.8331 68.7335 67.9631 68.7387 68.079 68.6931C68.3376 68.5404 68.4268 68.2112 68.2804 67.9503C68.0672 67.527 67.7297 67.1778 67.3125 66.9491C67.1974 67.4084 67.2256 67.8921 67.3938 68.335C67.4567 68.4855 67.573 68.6082 67.721 68.679ZM55.7745 57.8359C55.381 57.7873 54.984 57.8893 54.6588 58.1228C54.3308 58.3541 54.1165 58.7207 54.0704 59.1277C54.0135 59.978 54.6336 60.716 55.4573 60.7779C55.5297 60.786 55.6026 60.7897 55.6758 60.7894C56.4034 60.7894 57.7743 60.4843 57.8753 59.5684C57.9813 58.5498 56.3961 57.9078 55.7745 57.8359ZM55.5618 59.7975C55.2643 59.793 55.0248 59.5447 55.021 59.2377C55.039 59.1114 55.1087 58.999 55.2125 58.929C55.3223 58.8508 55.4527 58.8096 55.5862 58.8115C55.614 58.8115 55.6418 58.8115 55.6704 58.8163C56.1357 58.896 56.5662 59.1199 56.9056 59.4579C56.501 59.7092 56.0319 59.8275 55.5606 59.7975H55.5618ZM54.9471 64.4149C54.7827 64.0553 54.7911 63.645 54.9699 63.2917C55.1446 62.9381 55.4485 62.6579 55.8249 62.5037C56.4159 62.2565 58.1571 62.0048 58.5678 62.904C58.9781 63.8029 57.6038 64.8519 57.0108 65.0987C56.7946 65.1895 56.5609 65.237 56.3244 65.2374C56.1547 65.2374 55.9858 65.2122 55.8241 65.1625C55.4317 65.0476 55.1114 64.7744 54.9471 64.4149ZM57.1424 63.2187C56.8278 63.2135 56.5151 63.2643 56.2203 63.3688H56.2218C56.0666 63.4296 55.94 63.543 55.8668 63.6872C55.8062 63.7955 55.8009 63.9245 55.852 64.0368C55.9034 64.1491 56.0056 64.2329 56.1299 64.264C56.2905 64.3103 56.4629 64.2992 56.6154 64.2329C57.0509 64.0253 57.4101 63.6961 57.6458 63.2891C57.4844 63.2339 57.3132 63.2098 57.1424 63.2187Z" fill="#FFB61D"/>
<path fill-rule="evenodd" clip-rule="evenodd" d="M234.815 209.513C234.648 209.31 234.575 209.05 234.612 208.793C234.648 208.533 234.79 208.299 235.007 208.143C235.007 208.143 237.745 206.297 237.907 206.365C238.069 206.434 235.59 208.913 235.59 208.913C240.242 214.521 248.619 215.574 254.589 211.301C260.559 207.027 262.001 198.945 257.86 192.971L239.729 206.289C239.509 206.446 239.2 206.401 239.038 206.187C238.876 205.974 257.27 192.2 257.27 192.2C257.484 192.042 257.756 191.976 258.022 192.017C258.287 192.058 258.525 192.203 258.679 192.417C263.226 198.814 261.701 207.563 255.239 212.15C248.819 216.788 239.763 215.619 234.815 209.513ZM253.741 211.043C248.649 214.711 241.558 214.233 237.039 209.916C236.843 209.73 236.84 209.426 237.032 209.235C237.224 209.046 237.539 209.042 237.735 209.228C241.914 213.197 248.447 213.64 253.156 210.274C257.864 206.908 259.357 200.729 256.679 195.688C256.59 195.534 256.595 195.346 256.692 195.196C256.788 195.047 256.961 194.961 257.142 194.971C257.323 194.982 257.484 195.088 257.562 195.247C260.484 200.705 258.861 207.412 253.741 211.043ZM252.901 207.727C252.933 207.31 252.825 206.894 252.599 206.559C252.327 206.184 251.99 205.872 251.608 205.642C250.887 205.202 250.457 205.339 250.225 205.53C249.466 206.151 250.056 207.826 250.409 208.358C250.688 208.789 251.135 209.049 251.613 209.056C251.889 209.058 252.157 208.961 252.38 208.78C252.682 208.529 252.872 208.146 252.901 207.727ZM250.774 206.357C251.203 206.494 251.585 206.774 251.869 207.159C251.962 207.295 252.007 207.465 251.995 207.635C251.988 207.766 251.931 207.886 251.839 207.967C251.593 208.12 251.282 208.028 251.137 207.759C250.891 207.343 250.764 206.854 250.774 206.357ZM247.752 210.53C247.332 210.573 246.913 210.447 246.604 210.183C246.294 209.924 246.098 209.569 246.054 209.186C245.98 208.582 246.25 206.946 247.297 206.838C247.626 206.803 248.105 206.916 248.582 207.635C248.836 208.014 249.005 208.435 249.081 208.874C249.131 209.257 249.026 209.643 248.786 209.959C248.548 210.277 248.171 210.486 247.752 210.53ZM247.413 207.779C247.154 208.17 247.032 208.625 247.062 209.082C247.078 209.239 247.157 209.385 247.283 209.492C247.377 209.577 247.507 209.619 247.639 209.607C247.768 209.589 247.884 209.522 247.956 209.421C248.053 209.291 248.094 209.133 248.071 208.977C247.989 208.526 247.76 208.108 247.413 207.779ZM243.868 206.164C242.94 205.765 241.87 207.102 241.617 207.678V207.677C241.255 208.423 241.568 209.32 242.318 209.684C242.49 209.759 242.676 209.797 242.863 209.797C243.073 209.796 243.28 209.75 243.47 209.661C243.833 209.492 244.12 209.197 244.278 208.831C244.531 208.255 244.795 206.563 243.868 206.164ZM243.066 208.791C242.954 208.845 242.824 208.851 242.708 208.805C242.449 208.652 242.36 208.323 242.506 208.062C242.719 207.639 243.057 207.29 243.474 207.061C243.589 207.52 243.561 208.004 243.393 208.447C243.33 208.597 243.214 208.72 243.066 208.791ZM255.012 197.948C255.406 197.899 255.803 198.001 256.128 198.235C256.456 198.466 256.67 198.833 256.716 199.24C256.773 200.09 256.153 200.828 255.329 200.89C255.257 200.898 255.184 200.902 255.111 200.901C254.383 200.901 253.012 200.596 252.911 199.68C252.805 198.662 254.391 198.02 255.012 197.948ZM255.225 199.909C255.522 199.905 255.762 199.657 255.766 199.35C255.748 199.223 255.678 199.111 255.574 199.041C255.464 198.963 255.334 198.922 255.2 198.923C255.173 198.923 255.145 198.923 255.116 198.928C254.651 199.008 254.22 199.232 253.881 199.57C254.286 199.821 254.755 199.939 255.226 199.909H255.225ZM255.84 204.527C256.004 204.167 255.996 203.757 255.817 203.404C255.642 203.05 255.338 202.77 254.962 202.616C254.371 202.368 252.63 202.117 252.219 203.016C251.809 203.915 253.183 204.964 253.776 205.211C253.992 205.301 254.226 205.349 254.462 205.349C254.632 205.349 254.801 205.324 254.963 205.274C255.355 205.16 255.675 204.886 255.84 204.527ZM253.644 203.331C253.959 203.325 254.272 203.376 254.566 203.481H254.565C254.72 203.542 254.847 203.655 254.92 203.799C254.98 203.907 254.986 204.036 254.935 204.149C254.883 204.261 254.781 204.345 254.657 204.376C254.496 204.422 254.324 204.411 254.171 204.345C253.736 204.137 253.377 203.808 253.141 203.401C253.302 203.346 253.473 203.322 253.644 203.331Z" fill="#FFB61D"/>
<path d="M139.187 88.96C140.661 88.96 141.856 87.7983 141.856 86.3653C141.856 84.9323 140.661 83.7706 139.187 83.7706C137.712 83.7706 136.517 84.9323 136.517 86.3653C136.517 87.7983 137.712 88.96 139.187 88.96Z" fill="#FFB61D"/>
<path fill-rule="evenodd" clip-rule="evenodd" d="M132.613 216.172C132.952 216.995 131.839 220.811 128.936 223.546C126.032 226.282 122.263 226.931 121.954 226.181C121.645 225.432 125.869 223.958 128.536 221.288C131.202 218.618 132.274 215.351 132.613 216.172Z" fill="#00160A"/>
</svg>
