<svg width="24" height="24" viewBox="0 0 24 24" fill="none" xmlns="http://www.w3.org/2000/svg">
<path d="M9.17208 11.508L7.75708 10.094L12.0001 5.84998L16.2431 10.093L14.8281 11.507L12.0001 8.67998L9.17208 11.508ZM9.17208 12.492L7.75708 13.906L12.0001 18.15L16.2431 13.907L14.8281 12.493L12.0001 15.32L9.17208 12.492V12.492Z" fill="black"/>
<path fill-rule="evenodd" clip-rule="evenodd" d="M23 12C23 18.075 18.075 23 12 23C5.925 23 1 18.075 1 12C1 5.925 5.925 1 12 1C18.075 1 23 5.925 23 12ZM21 12C21 13.1819 20.7672 14.3522 20.3149 15.4442C19.8626 16.5361 19.1997 17.5282 18.364 18.364C17.5282 19.1997 16.5361 19.8626 15.4442 20.3149C14.3522 20.7672 13.1819 21 12 21C10.8181 21 9.64778 20.7672 8.55585 20.3149C7.46392 19.8626 6.47177 19.1997 5.63604 18.364C4.80031 17.5282 4.13738 16.5361 3.68508 15.4442C3.23279 14.3522 3 13.1819 3 12C3 9.61305 3.94821 7.32387 5.63604 5.63604C7.32387 3.94821 9.61305 3 12 3C14.3869 3 16.6761 3.94821 18.364 5.63604C20.0518 7.32387 21 9.61305 21 12Z" fill="black"/>
</svg>
